<?xml version="1.0" encoding="utf-8"?>
<!-- Uploaded to: SVG Repo, www.svgrepo.com, Generator: SVG Repo Mixer Tools -->
<svg fill="#000000" width="800px" height="800px" viewBox="0 0 32 32" version="1.1" xmlns="http://www.w3.org/2000/svg">
<title>hand-holding-heart</title>
<path d="M29.064 19.701c-0.421-0.177-0.91-0.28-1.423-0.28-0.577 0-1.123 0.13-1.611 0.362l0.023-0.010-5.778 2.595c0.003-0.047 0.026-0.087 0.026-0.134-0.015-1.371-1.129-2.476-2.502-2.476-0.069 0-0.137 0.003-0.204 0.008l0.009-0.001h-3.783l-4.76-1.395c-0.062-0.020-0.133-0.031-0.207-0.031-0.001 0-0.003 0-0.004 0h-2.169v-0.757c-0-0.414-0.336-0.75-0.75-0.75h-3.883c-0.414 0-0.75 0.336-0.75 0.75v0 12.208c0 0.414 0.336 0.75 0.75 0.75h3.883c0.414-0 0.75-0.336 0.75-0.75v0-1.005c1.818 0.284 3.445 0.742 4.987 1.367l-0.149-0.054c1.15 0.416 2.478 0.656 3.862 0.656 0.007 0 0.014 0 0.021-0h-0.001c0.005 0 0.011 0 0.017 0 1.604 0 3.133-0.319 4.528-0.898l-0.078 0.029c1.243-0.553 2.298-1.136 3.297-1.799l-0.082 0.051c0.338-0.209 0.674-0.418 1.014-0.619 1.633-0.967 2.945-1.816 4.129-2.672 0.579-0.412 1.083-0.819 1.563-1.253l-0.014 0.013c0.373-0.302 0.671-0.682 0.871-1.116l0.008-0.019c0.031-0.079 0.048-0.17 0.048-0.266 0-0.057-0.006-0.112-0.018-0.165l0.001 0.005c-0.146-1.017-0.755-1.866-1.603-2.337l-0.016-0.008zM5.181 29.041h-2.383v-10.709h2.383zM28.719 22.541c-0.412 0.37-0.86 0.729-1.328 1.062l-0.047 0.032c-1.143 0.826-2.418 1.65-4.014 2.596-0.348 0.205-0.691 0.418-1.037 0.631-0.854 0.573-1.837 1.12-2.864 1.586l-0.13 0.053c-1.152 0.474-2.49 0.748-3.892 0.748-1.203 0-2.359-0.203-3.436-0.575l0.074 0.022c-1.555-0.648-3.363-1.145-5.248-1.407l-0.117-0.013v-7.436h2.062l4.76 1.395c0.062 0.020 0.133 0.031 0.207 0.031 0.001 0 0.003 0 0.004 0h3.89c0.883 0 1.197 0.521 1.197 0.969s-0.314 0.969-1.197 0.969h-6.809c-0.414 0-0.75 0.336-0.75 0.75s0.336 0.75 0.75 0.75v0h7.781c0.001 0 0.003 0 0.004 0 0.11 0 0.214-0.024 0.307-0.068l-0.004 0.002 7.795-3.5c0.288-0.132 0.625-0.209 0.98-0.209 0.265 0 0.52 0.043 0.758 0.122l-0.017-0.005c0.383 0.23 0.658 0.604 0.752 1.046l0.002 0.011c-0.136 0.159-0.278 0.302-0.429 0.435l-0.005 0.004zM16.432 16.74c0.138 0.153 0.336 0.248 0.557 0.248s0.419-0.095 0.556-0.247l0.001-0.001 5.969-6.616c1.082-1.007 1.774-2.421 1.832-3.997l0-0.010c0-0.012 0-0.026 0-0.040 0-1.332-0.543-2.536-1.42-3.405l-0-0c-0.904-0.878-2.138-1.42-3.5-1.42-1.334 0-2.546 0.52-3.445 1.367l0.003-0.002c-0.851-0.723-1.962-1.163-3.176-1.163-0.432 0-0.85 0.056-1.249 0.16l0.034-0.008c-1.754 0.498-3.107 1.852-3.597 3.569l-0.009 0.037c-0.094 0.364-0.148 0.781-0.148 1.212 0 1.455 0.619 2.766 1.609 3.683l0.003 0.003zM10.437 5.601c0.351-1.238 1.306-2.193 2.518-2.539l0.026-0.006c0.249-0.070 0.536-0.11 0.832-0.11h0c1.048 0.034 1.983 0.493 2.643 1.209l0.002 0.003c0.136 0.136 0.323 0.22 0.53 0.22s0.395-0.084 0.53-0.22v0c0.742-0.818 1.79-1.347 2.961-1.407l0.010-0h0.025c1.842 0.012 3.33 1.508 3.33 3.351 0 0.002 0 0.003 0 0.005v-0c-0.060 1.182-0.589 2.229-1.403 2.969l-0.003 0.003-0.027 0.028-5.424 6.013-5.45-6.041c-0.737-0.651-1.199-1.598-1.199-2.653 0-0.292 0.035-0.576 0.102-0.848l-0.005 0.024z"></path>
</svg>