<?xml version="1.0" encoding="utf-8"?><!-- Uploaded to: SVG Repo, www.svgrepo.com, Generator: SVG Repo Mixer Tools -->
<svg fill="#000000" width="800px" height="800px" viewBox="0 0 24 24" id="help" data-name="Flat Color" xmlns="http://www.w3.org/2000/svg" class="icon flat-color"><path id="primary" d="M12,2A10,10,0,1,0,22,12,10,10,0,0,0,12,2Zm0,13a3,3,0,1,1,3-3A3,3,0,0,1,12,15Z" style="fill: rgb(0, 0, 0);"></path><path id="secondary" d="M12,2a9.87,9.87,0,0,0-3.7.71l2,6.85A3,3,0,0,1,12,9a3.07,3.07,0,0,1,1.74.55l2-6.84A9.87,9.87,0,0,0,12,2Zm0,20a9.87,9.87,0,0,0,3.7-.71l-2-6.85A3,3,0,0,1,12,15a3.07,3.07,0,0,1-1.74-.55l-2,6.84A9.87,9.87,0,0,0,12,22ZM22,12a9.87,9.87,0,0,0-.71-3.7l-6.85,2A3,3,0,0,1,15,12a3.07,3.07,0,0,1-.55,1.74l6.84,2A9.87,9.87,0,0,0,22,12ZM2,12a9.87,9.87,0,0,0,.71,3.7l6.85-2A3,3,0,0,1,9,12a3.07,3.07,0,0,1,.55-1.74l-6.84-2A9.87,9.87,0,0,0,2,12Z" style="fill: rgb(44, 169, 188);"></path></svg>